# xmcd
#
# Track frame offsets:
# 150
# 18440
# 32427
# 54337
# 77199
# 103284
# 118558
# 137375
# 153102
# 171010
# 186302
# 214762
# 238514
# 254603
# 272610
# 289589
# 307404
# 322075
# 338425
#
# Disc length: 4720 seconds
#
#
# Revision: 0
# Processed by: cddbd v1.5.2PL0 Copyright (c) Steve Scherf et al.
# Submitted via: FreeRIP 2.951 
#
DISCID=0a126e13
DTITLE=PabloDiablo - Moj albumik lol
DYEAR=1900
DGENRE=Acid Punk
TTITLE0=Piosenka 1
TTITLE1=Piosenka 2
TTITLE2=Piosenka-03
TTITLE3=Piosenka-04
TTITLE4=Piosenkak-05
TTITLE5=Piosenkack-06
TTITLE6=Piosenka-07
TTITLE7=Piosenkak-08
TTITLE8=Piosenka-09
TTITLE9=Piosenkak-10
TTITLE10=Piosenka-11
TTITLE11=Piosenka-12
TTITLE12=Piosenkak-13
TTITLE13=Piosenkak-14
TTITLE14=Piosenkack-15
TTITLE15=Piosenkak-16
TTITLE16=Piosenkack-17
TTITLE17=Piosenkak-18
TTITLE18=Piosenkak-19
EXTD=no comment
EXTT0=
EXTT1=
EXTT2=
EXTT3=
EXTT4=
EXTT5=
EXTT6=
EXTT7=
EXTT8=
EXTT9=
EXTT10=
EXTT11=
EXTT12=
EXTT13=
EXTT14=
EXTT15=
EXTT16=
EXTT17=
EXTT18=
PLAYORDER=
